<mxfile host="drawio-plugin" modified="2022-08-27T06:30:02.634Z" agent="5.0 (Macintosh; Intel Mac OS X 12_2_1) AppleWebKit/537.36 (KHTML, like Gecko) Chrome/89.0.4389.114 Safari/537.36" version="15.5.4" etag="364VUmZKOgMLqkxZBaY9" type="embed"><diagram id="EMCLjEPAdSnTNiprPMFz" name="Page-1"><mxGraphModel dx="694" dy="471" grid="1" gridSize="10" guides="1" tooltips="1" connect="1" arrows="1" fold="1" page="1" pageScale="1" pageWidth="850" pageHeight="1100" math="0" shadow="0"><root><mxCell id="0"/><mxCell id="1" parent="0"/><mxCell id="2" value="client" style="shape=umlActor;verticalLabelPosition=bottom;verticalAlign=top;html=1;outlineConnect=0;" vertex="1" parent="1"><mxGeometry x="130" y="190" width="30" height="60" as="geometry"/></mxCell><mxCell id="3" value="" style="shape=cube;whiteSpace=wrap;html=1;boundedLbl=1;backgroundOutline=1;darkOpacity=0.05;darkOpacity2=0.1;fillColor=#dae8fc;strokeColor=#6c8ebf;" vertex="1" parent="1"><mxGeometry x="290" y="185" width="70" height="70" as="geometry"/></mxCell><mxCell id="4" value="Server" style="text;html=1;align=center;verticalAlign=middle;resizable=0;points=[];autosize=1;strokeColor=none;fillColor=none;" vertex="1" parent="1"><mxGeometry x="300" y="255" width="60" height="30" as="geometry"/></mxCell><mxCell id="5" value="" style="shape=cube;whiteSpace=wrap;html=1;boundedLbl=1;backgroundOutline=1;darkOpacity=0.05;darkOpacity2=0.1;fillColor=#ffe6cc;strokeColor=#d79b00;" vertex="1" parent="1"><mxGeometry x="490" y="185" width="70" height="70" as="geometry"/></mxCell><mxCell id="6" value="Customer Server" style="text;html=1;align=center;verticalAlign=middle;resizable=0;points=[];autosize=1;strokeColor=none;fillColor=none;" vertex="1" parent="1"><mxGeometry x="474" y="255" width="110" height="30" as="geometry"/></mxCell><mxCell id="7" value="&lt;h1&gt;Original Structure&lt;/h1&gt;" style="text;html=1;strokeColor=none;fillColor=none;spacing=5;spacingTop=-20;whiteSpace=wrap;overflow=hidden;rounded=0;" vertex="1" parent="1"><mxGeometry x="215" y="110" width="295" height="40" as="geometry"/></mxCell><mxCell id="8" value="1. request" style="html=1;verticalAlign=bottom;startArrow=oval;startFill=1;endArrow=block;startSize=8;rounded=0;" edge="1" parent="1"><mxGeometry width="60" relative="1" as="geometry"><mxPoint x="180" y="219.5" as="sourcePoint"/><mxPoint x="270" y="219.5" as="targetPoint"/></mxGeometry></mxCell><mxCell id="9" value="2. request" style="html=1;verticalAlign=bottom;startArrow=oval;startFill=1;endArrow=block;startSize=8;rounded=0;" edge="1" parent="1"><mxGeometry width="60" relative="1" as="geometry"><mxPoint x="384" y="220" as="sourcePoint"/><mxPoint x="474" y="220" as="targetPoint"/></mxGeometry></mxCell><mxCell id="10" value="3. response" style="html=1;verticalAlign=bottom;startArrow=oval;startFill=1;endArrow=block;startSize=8;rounded=0;" edge="1" parent="1"><mxGeometry width="60" relative="1" as="geometry"><mxPoint x="474" y="240" as="sourcePoint"/><mxPoint x="374" y="240" as="targetPoint"/></mxGeometry></mxCell><mxCell id="11" value="4. response" style="html=1;verticalAlign=bottom;startArrow=oval;startFill=1;endArrow=block;startSize=8;rounded=0;" edge="1" parent="1"><mxGeometry width="60" relative="1" as="geometry"><mxPoint x="270" y="240" as="sourcePoint"/><mxPoint x="170" y="240" as="targetPoint"/></mxGeometry></mxCell></root></mxGraphModel></diagram></mxfile>